<svg xmlns="http://www.w3.org/2000/svg">
  <symbol id="icon-heart" viewBox="0 0 24 24">
    <path d="M7 5h4v3h2V5h4v2h2v5h-2v3h-2v2h-2v2h-2v-2H9v-2H7v-3H5V7h2z" fill="#f45f84"/>
    <path d="M7 5h4v3h2V5h4v2h2v5h-2v3h-2v2h-2v2h-2v-2H9v-2H7v-3H5V7h2z" fill="none" stroke="currentColor" stroke-width="1.8"/>
    <path d="M8 7h3v2H8z" fill="#fff"/>
  </symbol>
  <symbol id="icon-home" viewBox="0 0 24 24">
    <path d="M4 11h3v8h10v-8h3L12 4z" fill="#dff2ff" stroke="currentColor" stroke-width="1.8"/>
    <path d="M10 19v-5h4v5M8 10h8" fill="none" stroke="currentColor" stroke-width="1.8"/>
    <path d="M6 12h2v2H6z" fill="#fff"/>
  </symbol>
  <symbol id="icon-stage" viewBox="0 0 24 24">
    <path d="M7 4v16" stroke="currentColor" stroke-width="2"/>
    <path d="M8 5h10v7H8z" fill="#dff2ff" stroke="currentColor" stroke-width="1.8"/>
    <path d="M9 7h5v2H9z" fill="#f8cf55"/>
    <path d="M7 20h8" stroke="currentColor" stroke-width="2"/>
  </symbol>
  <symbol id="icon-explore" viewBox="0 0 24 24">
    <path d="M5 10a6 6 0 1 0 12 0A6 6 0 0 0 5 10z" fill="#dff2ff" stroke="currentColor" stroke-width="1.8"/>
    <path d="m15 15 5 5" stroke="currentColor" stroke-width="2.4"/>
    <path d="M8 8h4v2H8z" fill="#fff"/>
  </symbol>
  <symbol id="icon-log" viewBox="0 0 24 24">
    <path d="M7 4h10v16H7z" fill="#dff2ff" stroke="currentColor" stroke-width="1.8"/>
    <path d="M9 8h6M9 12h6M9 16h4" stroke="currentColor" stroke-width="1.8"/>
    <path d="M10 3h4v3h-4z" fill="#fff" stroke="currentColor" stroke-width="1.4"/>
  </symbol>
  <symbol id="icon-account" viewBox="0 0 24 24">
    <path d="M9 8a3 3 0 1 0 6 0 3 3 0 0 0-6 0z" fill="#dff2ff" stroke="currentColor" stroke-width="1.8"/>
    <path d="M6 20v-3h2v-2h8v2h2v3z" fill="#dff2ff" stroke="currentColor" stroke-width="1.8"/>
    <path d="M10 7h2v2h-2z" fill="#fff"/>
  </symbol>
  <symbol id="icon-body" viewBox="0 0 24 24">
    <path d="M9 4h6v3h-2v4h3v3h-3v6h-2v-6H8v-3h3V7H9z" fill="#dff2ff" stroke="currentColor" stroke-width="1.8"/>
    <path d="M8 14h8M10 18h4" stroke="#2672d9" stroke-width="1.6"/>
  </symbol>
  <symbol id="icon-pain" viewBox="0 0 24 24">
    <path d="M5 19h14" stroke="currentColor" stroke-width="1.8"/>
    <path d="M7 16v-4h3v4zM11 16V8h3v8zM15 16v-6h3v6z" fill="#dff2ff" stroke="currentColor" stroke-width="1.5"/>
    <path d="M11 8h3v4h-3z" fill="#f45f84"/>
  </symbol>
  <symbol id="icon-people" viewBox="0 0 24 24">
    <path d="M6 9a3 3 0 1 0 6 0 3 3 0 0 0-6 0zM4 20v-3h2v-2h6v2h2v3z" fill="#dff2ff" stroke="currentColor" stroke-width="1.6"/>
    <path d="M14 8a2.5 2.5 0 1 0 5 0 2.5 2.5 0 0 0-5 0zM14 19v-3h2v-2h4v5z" fill="#cfeaff" stroke="currentColor" stroke-width="1.5"/>
  </symbol>
  <symbol id="icon-saved" viewBox="0 0 24 24">
    <path d="M5 8h14v11H5z" fill="#dff2ff" stroke="currentColor" stroke-width="1.8"/>
    <path d="M8 5h8v5H8z" fill="#f8cf55" stroke="currentColor" stroke-width="1.8"/>
    <path d="M8 13h8" stroke="currentColor" stroke-width="1.8"/>
  </symbol>
  <symbol id="icon-question" viewBox="0 0 24 24">
    <path d="M5 7h14v10H9l-4 3z" fill="#dff2ff" stroke="currentColor" stroke-width="1.8"/>
    <path d="M10 9h4v3h-2v2M12 16h1" stroke="currentColor" stroke-width="1.8"/>
  </symbol>
  <symbol id="icon-reply" viewBox="0 0 24 24">
    <path d="M9 7 4 12l5 5v-3h5c3 0 5 2 6 5v-5c0-3-2-5-6-5H9z" fill="#dff2ff" stroke="currentColor" stroke-width="1.8"/>
    <path d="M8 10h5" stroke="#fff" stroke-width="1.8"/>
  </symbol>
  <symbol id="icon-report" viewBox="0 0 24 24">
    <path d="M12 4 4 20h16z" fill="#ffe4e4" stroke="currentColor" stroke-width="1.8"/>
    <path d="M12 9v5M12 17h1" stroke="#f45f84" stroke-width="2"/>
  </symbol>
  <symbol id="icon-gear" viewBox="0 0 24 24">
    <path d="M10 4h4v3h3v3h3v4h-3v3h-3v3h-4v-3H7v-3H4v-4h3V7h3z" fill="#dff2ff" stroke="currentColor" stroke-width="1.6"/>
    <path d="M10 10h4v4h-4z" fill="#fff" stroke="currentColor" stroke-width="1.5"/>
  </symbol>
  <symbol id="icon-check" viewBox="0 0 24 24">
    <path d="M4 12h4v4h3v-3h2v-3h2V7h5v5h-2v3h-2v3h-2v2H8v-2H6v-2H4z" fill="#6ed18a" stroke="currentColor" stroke-width="1.8"/>
  </symbol>
  <symbol id="icon-edit" viewBox="0 0 24 24">
    <path d="M5 17v3h3l10-10-3-3z" fill="#f8cf55" stroke="currentColor" stroke-width="1.8"/>
    <path d="M14 6 16 4l4 4-2 2z" fill="#dff2ff" stroke="currentColor" stroke-width="1.8"/>
  </symbol>
  <symbol id="icon-shield" viewBox="0 0 24 24">
    <path d="M12 4 5 7v5c0 4 3 7 7 8 4-1 7-4 7-8V7z" fill="#dff2ff" stroke="currentColor" stroke-width="1.8"/>
    <path d="M9 12h2v2h4v2H9z" fill="#6ed18a"/>
  </symbol>
  <symbol id="icon-movement" viewBox="0 0 24 24">
    <path d="M11 5a2 2 0 1 0 4 0 2 2 0 0 0-4 0z" fill="#dff2ff" stroke="currentColor" stroke-width="1.6"/>
    <path d="M12 8h3l2 4h-3l-1 3 3 4h-3l-2-3-2 3H6l4-6z" fill="#dff2ff" stroke="currentColor" stroke-width="1.6"/>
  </symbol>
  <symbol id="icon-list" viewBox="0 0 24 24">
    <path d="M6 6h2v2H6zM6 11h2v2H6zM6 16h2v2H6z" fill="#f8cf55" stroke="currentColor" stroke-width="1.2"/>
    <path d="M10 7h8M10 12h8M10 17h8" stroke="currentColor" stroke-width="1.8"/>
  </symbol>
</svg>
